<?xml version="1.0" encoding="UTF-8"?><svg id="Layer_1" xmlns="http://www.w3.org/2000/svg" viewBox="0 0 800 400"><polygon points="529.57 262.33 533.37 262.33 495.47 348.51 491.66 348.51 529.57 262.33"/><polygon points="465.76 262.33 473.83 262.33 435.92 348.51 427.86 348.51 465.76 262.33"/><polygon points="401.96 262.33 414.29 262.33 376.38 348.51 364.06 348.51 401.96 262.33"/><polygon points="338.16 262.33 354.74 262.33 316.84 348.51 300.25 348.51 338.16 262.33"/><polygon points="274.36 262.33 295.2 262.33 257.3 348.51 236.45 348.51 274.36 262.33"/><polygon points="210.55 262.33 235.66 262.33 197.75 348.51 172.65 348.51 210.55 262.33"/><polygon points="146.75 262.33 176.11 262.33 138.21 348.51 108.85 348.51 146.75 262.33"/><polygon points="82.95 262.33 116.57 262.33 78.67 348.51 45.04 348.51 82.95 262.33"/><path d="M609.76,328.92h-34.6l-9,19.63h-13.14l40-85.91,38.58,85.91h-13.35l-8.48-19.63ZM604.79,317.46l-11.99-27.48-12.56,27.48h24.55Z"/><path d="M653.9,267.72v69.37h23.77v11.46h-35.97v-80.83h12.2Z"/><path d="M748.97,272.07v14.45c-7.05-5.9-14.34-8.85-21.88-8.85-8.31,0-15.3,2.98-20.99,8.95-5.72,5.93-8.59,13.19-8.59,21.78s2.86,15.64,8.59,21.46c5.72,5.83,12.74,8.74,21.05,8.74,4.29,0,7.94-.7,10.94-2.09,1.68-.7,3.41-1.64,5.21-2.83,1.8-1.19,3.69-2.62,5.68-4.29v14.71c-6.98,3.94-14.31,5.92-21.99,5.92-11.55,0-21.41-4.03-29.58-12.09-8.13-8.13-12.2-17.94-12.2-29.42,0-10.3,3.4-19.47,10.21-27.54,8.38-9.88,19.21-14.82,32.51-14.82,7.26,0,14.27,1.97,21.05,5.92Z"/><path d="M158.7,231.74l-52.32-121.08-21.13,114.35h-19.56S99.84,49.98,99.84,49.98l58.87,139.24,58.86-139.24,34.14,175.02h-19.56s-21.37-114.36-21.37-114.36l-52.07,121.1Z"/><path d="M451.63,139.61c0,11.97-2.2,23.28-6.61,33.94-4.41,10.66-10.87,20.14-19.37,28.42-8.51,8.28-18.38,14.69-29.61,19.21-11.23,4.52-22.67,6.79-34.32,6.79s-23.32-2.25-34.32-6.73c-11-4.49-20.77-10.9-29.32-19.22-8.55-8.32-15.06-17.83-19.54-28.53-4.48-10.7-6.73-21.99-6.73-33.88s2.24-23.32,6.73-34.06c4.48-10.73,10.98-20.25,19.49-28.53,8.51-8.28,18.34-14.65,29.49-19.1,11.15-4.45,22.55-6.67,34.21-6.67s23.55,2.2,34.55,6.62c11,4.41,20.75,10.75,29.26,19.04,8.51,8.28,14.99,17.8,19.43,28.53,4.44,10.74,6.67,22.13,6.67,34.17ZM361.72,209.11c9.2,0,17.94-1.73,26.21-5.18,8.28-3.45,15.79-8.55,22.54-15.3,6.44-6.44,11.42-13.86,14.95-22.26,3.52-8.4,5.29-17.32,5.29-26.76s-1.75-18.51-5.23-26.98c-3.49-8.48-8.47-15.95-14.94-22.44-6.48-6.48-13.91-11.49-22.31-15.02-8.39-3.53-17.23-5.29-26.5-5.29s-18.11,1.73-26.5,5.18c-8.39,3.45-15.81,8.48-22.25,15.07-6.44,6.6-11.42,14.14-14.94,22.61-3.53,8.48-5.29,17.43-5.29,26.87s1.71,18.26,5.12,26.47c3.41,8.21,8.43,15.67,15.06,22.38,6.63,6.71,14.1,11.83,22.42,15.36,8.32,3.53,17.11,5.29,26.39,5.29Z"/><path d="M754.96,139.61c0,11.97-2.2,23.28-6.61,33.94-4.41,10.66-10.87,20.14-19.37,28.42-8.51,8.28-18.38,14.69-29.61,19.21-11.23,4.52-22.67,6.79-34.32,6.79s-23.32-2.25-34.32-6.73c-11-4.49-20.77-10.9-29.32-19.22-8.55-8.32-15.06-17.83-19.54-28.53-4.48-10.7-6.73-21.99-6.73-33.88s2.24-23.32,6.73-34.06c4.48-10.73,10.98-20.25,19.49-28.53,8.51-8.28,18.34-14.65,29.49-19.1,11.15-4.45,22.55-6.67,34.21-6.67s23.55,2.2,34.55,6.62c11,4.41,20.75,10.75,29.26,19.04,8.51,8.28,14.99,17.8,19.43,28.53,4.44,10.74,6.67,22.13,6.67,34.17ZM665.05,209.11c9.2,0,17.94-1.73,26.21-5.18,8.28-3.45,15.79-8.55,22.54-15.3,6.44-6.44,11.42-13.86,14.95-22.26,3.52-8.4,5.29-17.32,5.29-26.76s-1.74-18.51-5.23-26.98c-3.49-8.48-8.47-15.95-14.95-22.44-6.48-6.48-13.91-11.49-22.31-15.02-8.39-3.53-17.23-5.29-26.5-5.29s-18.11,1.73-26.5,5.18c-8.39,3.45-15.81,8.48-22.25,15.07-6.44,6.6-11.42,14.14-14.95,22.61-3.53,8.48-5.29,17.43-5.29,26.87s1.71,18.26,5.12,26.47c3.41,8.21,8.43,15.67,15.06,22.38,6.63,6.71,14.1,11.83,22.42,15.36,8.32,3.53,17.11,5.29,26.39,5.29Z"/><path d="M502.71,225.12V75.76h-40.59v-19.09h101.18v19.09h-40.36v149.35h-20.23Z"/></svg>