<?xml version="1.0" encoding="UTF-8"?><svg id="Layer_1" xmlns="http://www.w3.org/2000/svg" viewBox="0 0 1600 200"><path d="M1318.84,138.27h-61.98l-16.13,35.16h-23.53l71.63-153.86,69.1,153.86h-23.91l-15.19-35.16ZM1309.93,117.74l-21.47-49.22-22.5,49.22h43.97Z"/><path d="M1397.88,28.67v124.23h42.57v20.53h-64.41V28.67h21.85Z"/><path d="M1568.15,36.45v25.88c-12.63-10.56-25.69-15.85-39.19-15.85-14.88,0-27.41,5.34-37.6,16.03-10.25,10.63-15.38,23.63-15.38,39s5.12,28,15.38,38.44c10.25,10.44,22.81,15.66,37.69,15.66,7.69,0,14.22-1.25,19.6-3.75,3-1.25,6.11-2.94,9.33-5.06,3.22-2.12,6.61-4.69,10.17-7.69v26.35c-12.5,7.06-25.63,10.59-39.38,10.59-20.69,0-38.35-7.22-52.97-21.66-14.57-14.56-21.85-32.13-21.85-52.69,0-18.44,6.09-34.88,18.28-49.32,15-17.69,34.41-26.53,58.23-26.53,13,0,25.56,3.53,37.69,10.59Z"/><path d="M101.35,181.49l-47.12-109.05-19.03,102.99h-17.62S48.33,17.79,48.33,17.79l53.02,125.41,53.02-125.41,30.75,157.63h-17.62s-19.25-103-19.25-103l-46.9,109.07Z"/><path d="M365.18,98.52c0,10.78-1.99,20.97-5.95,30.57-3.97,9.6-9.79,18.14-17.45,25.6-7.66,7.46-16.55,13.23-26.67,17.3-10.11,4.07-20.41,6.11-30.91,6.11s-21-2.02-30.91-6.06c-9.91-4.04-18.71-9.81-26.41-17.31-7.7-7.49-13.56-16.06-17.6-25.7-4.04-9.64-6.06-19.81-6.06-30.52s2.02-21,6.06-30.67c4.04-9.67,9.89-18.24,17.55-25.7,7.66-7.46,16.52-13.19,26.56-17.2,10.04-4.01,20.31-6.01,30.81-6.01s21.21,1.99,31.12,5.96c9.91,3.97,18.69,9.69,26.35,17.15,7.66,7.46,13.5,16.03,17.5,25.7,4,9.67,6.01,19.93,6.01,30.77ZM284.2,161.11c8.28,0,16.15-1.55,23.61-4.66,7.46-3.11,14.22-7.7,20.3-13.78,5.8-5.8,10.28-12.49,13.46-20.05,3.17-7.57,4.76-15.6,4.76-24.1s-1.57-16.67-4.71-24.3c-3.14-7.63-7.63-14.37-13.46-20.21-5.84-5.84-12.53-10.35-20.09-13.52-7.56-3.18-15.52-4.77-23.87-4.77s-16.31,1.56-23.87,4.66c-7.56,3.11-14.24,7.64-20.04,13.58-5.8,5.94-10.29,12.73-13.46,20.37-3.18,7.63-4.77,15.7-4.77,24.2s1.54,16.45,4.61,23.84c3.07,7.39,7.59,14.11,13.56,20.16,5.97,6.05,12.7,10.66,20.19,13.84,7.49,3.18,15.41,4.77,23.77,4.77Z"/><path d="M638.37,98.52c0,10.78-1.98,20.97-5.95,30.57-3.97,9.6-9.79,18.14-17.45,25.6-7.66,7.46-16.55,13.23-26.67,17.3-10.11,4.07-20.42,6.11-30.91,6.11s-21-2.02-30.91-6.06c-9.91-4.04-18.71-9.81-26.41-17.31-7.7-7.49-13.56-16.06-17.6-25.7-4.04-9.64-6.06-19.81-6.06-30.52s2.02-21,6.06-30.67c4.04-9.67,9.89-18.24,17.55-25.7,7.66-7.46,16.51-13.19,26.56-17.2,10.04-4.01,20.31-6.01,30.81-6.01s21.21,1.99,31.12,5.96c9.91,3.97,18.69,9.69,26.35,17.15,7.66,7.46,13.5,16.03,17.5,25.7,4,9.67,6.01,19.93,6.01,30.77ZM557.39,161.11c8.28,0,16.15-1.55,23.61-4.66,7.46-3.11,14.22-7.7,20.3-13.78,5.8-5.8,10.29-12.49,13.46-20.05,3.17-7.57,4.76-15.6,4.76-24.1s-1.57-16.67-4.71-24.3c-3.14-7.63-7.63-14.37-13.46-20.21-5.84-5.84-12.53-10.35-20.09-13.52-7.56-3.18-15.52-4.77-23.87-4.77s-16.31,1.56-23.87,4.66c-7.56,3.11-14.24,7.64-20.04,13.58-5.8,5.94-10.29,12.73-13.46,20.37-3.18,7.63-4.77,15.7-4.77,24.2s1.54,16.45,4.61,23.84c3.07,7.39,7.59,14.11,13.57,20.16,5.97,6.05,12.7,10.66,20.19,13.84,7.49,3.18,15.41,4.77,23.77,4.77Z"/><path d="M411.19,175.53V41.01h-36.56v-17.19h91.13v17.19h-36.35v134.52h-18.22Z"/><rect x="1169.03" y="18.94" width="4.15" height="157.12"/><rect x="1114.87" y="18.94" width="7.77" height="157.12"/><rect x="1060.72" y="18.94" width="11.38" height="157.12"/><rect x="1006.56" y="18.94" width="15" height="157.12"/><rect x="952.41" y="18.94" width="18.62" height="157.12"/><rect x="898.26" y="18.94" width="22.23" height="157.12"/><rect x="844.1" y="18.94" width="25.85" height="157.12"/><rect x="789.95" y="18.94" width="29.46" height="157.12"/><rect x="735.8" y="18.94" width="33.08" height="157.12"/><rect x="681.64" y="18.94" width="36.69" height="157.12"/></svg>