<?xml version="1.0" encoding="UTF-8"?><svg id="Layer_1" xmlns="http://www.w3.org/2000/svg" viewBox="0 0 1000 200"><path d="M89.77,150.46l-29.05-67.23-11.73,63.49h-10.86s18.96-97.17,18.96-97.17l32.68,77.31,32.68-77.31,18.96,97.17h-10.86s-11.87-63.5-11.87-63.5l-28.91,67.24Z"/><path d="M252.41,99.3c0,6.64-1.22,12.92-3.67,18.84-2.45,5.92-6.03,11.18-10.76,15.78-4.72,4.6-10.2,8.15-16.44,10.67-6.23,2.51-12.58,3.77-19.05,3.77s-12.95-1.25-19.05-3.74c-6.11-2.49-11.53-6.05-16.28-10.67-4.75-4.62-8.36-9.9-10.85-15.84-2.49-5.94-3.73-12.21-3.73-18.81s1.24-12.95,3.73-18.91c2.49-5.96,6.1-11.24,10.82-15.84,4.72-4.6,10.18-8.13,16.37-10.6,6.19-2.47,12.52-3.71,18.99-3.71s13.08,1.22,19.18,3.67c6.11,2.45,11.52,5.97,16.25,10.57,4.72,4.6,8.32,9.88,10.79,15.84,2.47,5.96,3.7,12.28,3.7,18.97ZM202.49,137.89c5.11,0,9.96-.96,14.55-2.88,4.6-1.92,8.77-4.75,12.51-8.5,3.57-3.58,6.34-7.7,8.3-12.36,1.96-4.67,2.94-9.62,2.94-14.86s-.97-10.28-2.91-14.98c-1.94-4.71-4.7-8.86-8.3-12.46-3.6-3.6-7.73-6.38-12.39-8.34-4.66-1.96-9.56-2.94-14.71-2.94s-10.05.96-14.71,2.88c-4.66,1.92-8.78,4.71-12.35,8.37-3.57,3.66-6.34,7.85-8.3,12.55-1.96,4.71-2.94,9.68-2.94,14.92s.95,10.14,2.84,14.7c1.89,4.56,4.68,8.7,8.36,12.43,3.68,3.73,7.83,6.57,12.45,8.53,4.62,1.96,9.5,2.94,14.65,2.94Z"/><path d="M420.82,99.3c0,6.64-1.22,12.92-3.67,18.84-2.45,5.92-6.03,11.18-10.76,15.78-4.72,4.6-10.2,8.15-16.44,10.67-6.23,2.51-12.59,3.77-19.05,3.77s-12.95-1.25-19.05-3.74c-6.11-2.49-11.53-6.05-16.28-10.67-4.75-4.62-8.36-9.9-10.85-15.84-2.49-5.94-3.73-12.21-3.73-18.81s1.24-12.95,3.73-18.91c2.49-5.96,6.1-11.24,10.82-15.84,4.72-4.6,10.18-8.13,16.37-10.6,6.19-2.47,12.52-3.71,18.99-3.71s13.07,1.22,19.18,3.67c6.11,2.45,11.52,5.97,16.25,10.57,4.72,4.6,8.32,9.88,10.79,15.84,2.47,5.96,3.7,12.28,3.7,18.97ZM370.9,137.89c5.11,0,9.96-.96,14.55-2.88,4.6-1.92,8.77-4.75,12.51-8.5,3.58-3.58,6.34-7.7,8.3-12.36,1.96-4.67,2.94-9.62,2.94-14.86s-.97-10.28-2.91-14.98c-1.94-4.71-4.7-8.86-8.3-12.46-3.6-3.6-7.72-6.38-12.38-8.34-4.66-1.96-9.56-2.94-14.71-2.94s-10.05.96-14.71,2.88c-4.66,1.92-8.78,4.71-12.35,8.37-3.58,3.66-6.34,7.85-8.3,12.55-1.96,4.71-2.94,9.68-2.94,14.92s.95,10.14,2.84,14.7c1.89,4.56,4.68,8.7,8.36,12.43,3.68,3.73,7.83,6.57,12.45,8.53,4.62,1.96,9.5,2.94,14.65,2.94Z"/><path d="M280.77,146.78V63.86h-22.54v-10.6h56.18v10.6h-22.41v82.92h-11.23Z"/><rect x="463.28" y="19.83" width="5.71" height="160.33"/><path d="M548.32,84.97h-18.2l-3.99,9.47h-9.54l19.42-45.14h6.9l18.88,45.14h-9.47l-3.99-9.47ZM545.75,77.8l-6.43-16.24-6.43,16.24h12.86Z"/><path d="M576.8,65.14v16.58c0,1.56.14,3.65,1.76,5.14,1.01.88,2.64,1.49,4.2,1.49s3.18-.61,4.2-1.49c1.62-1.49,1.76-3.59,1.76-5.14v-16.58h8.26v17.93c0,2.64-.34,6.16-3.59,9-2.71,2.37-7.04,3.32-10.62,3.32s-7.92-.95-10.62-3.32c-3.25-2.84-3.59-6.36-3.59-9v-17.93h8.26Z"/><path d="M629.99,45.12h8.26v49.33h-8.26v-3.79c-2.98,4.26-6.9,4.74-9,4.74-9,0-14.95-7.04-14.95-15.63s5.89-15.57,14.55-15.57c2.23,0,6.63.41,9.41,4.74v-23.82ZM614.56,79.76c0,4.67,3.38,8.32,8.12,8.32s8.12-3.65,8.12-8.32-3.38-8.26-8.12-8.26-8.12,3.59-8.12,8.26Z"/><path d="M652.92,47.82c2.71,0,4.94,2.23,4.94,4.94s-2.23,4.94-4.94,4.94-4.94-2.23-4.94-4.94,2.23-4.94,4.94-4.94ZM657.05,65.14v29.3h-8.26v-29.3h8.26Z"/><path d="M694.74,68.33c2.91,2.64,4.94,6.7,4.94,11.5s-2.03,8.8-4.94,11.44c-2.5,2.3-6.29,4.13-11.84,4.13s-9.34-1.83-11.84-4.13c-2.91-2.64-4.94-6.7-4.94-11.44s2.03-8.87,4.94-11.5c2.5-2.3,6.29-4.13,11.84-4.13s9.34,1.83,11.84,4.13ZM691.15,79.83c0-4.6-3.52-8.32-8.26-8.32s-8.26,3.72-8.26,8.32,3.45,8.26,8.26,8.26,8.26-3.79,8.26-8.26Z"/><path d="M737.23,49.31v37.56h13.94v7.58h-22.74v-45.14h8.8Z"/><path d="M781.21,65.14h8.26v29.3h-8.26v-3.79c-2.98,4.26-6.9,4.74-9,4.74-9,0-14.95-7.04-14.95-15.63s5.89-15.57,14.55-15.57c2.23,0,6.63.41,9.41,4.74v-3.79ZM765.78,79.76c0,4.67,3.38,8.32,8.12,8.32s8.12-3.65,8.12-8.32-3.38-8.26-8.12-8.26-8.12,3.59-8.12,8.26Z"/><path d="M808.27,72.18v22.26h-8.26v-22.26h-3.25v-7.04h3.25v-10.01h8.26v10.01h5.68v7.04h-5.68Z"/><path d="M849.75,86.26c-.88,2.17-4.2,9.14-14.41,9.14-4.74,0-8.32-1.35-11.23-4.13-3.25-3.05-4.6-6.83-4.6-11.44,0-5.82,2.37-9.41,4.47-11.5,3.45-3.38,7.51-4.13,11.03-4.13,5.95,0,9.41,2.37,11.44,4.8,3.11,3.72,3.52,8.32,3.52,11.5v.68h-21.93c0,1.76.47,3.65,1.42,4.94.88,1.22,2.71,2.77,5.89,2.77s5.48-1.49,6.83-3.86l7.58,1.22ZM842.17,75.9c-.68-3.99-3.93-5.89-6.97-5.89s-6.23,1.96-6.9,5.89h13.87Z"/><path d="M859.02,65.14h8.26v3.79c1.56-2.16,4.33-4.74,9.07-4.74,2.57,0,6.36.75,8.66,3.59,2.03,2.5,2.3,5.41,2.3,8.26v18.41h-8.26v-15.97c0-1.62-.07-4.19-1.56-5.75-1.29-1.35-3.04-1.49-3.86-1.49-2.17,0-3.86.74-5.07,2.57-1.22,1.89-1.29,3.99-1.29,5.68v14.95h-8.26v-29.3Z"/><path d="M919.92,74.08c-1.76-1.62-3.93-2.57-6.77-2.57-5.48,0-8.26,3.99-8.26,8.26,0,4.8,3.59,8.32,8.53,8.32,1.83,0,4.26-.54,6.5-2.57v8.05c-1.62.81-4.2,1.83-7.58,1.83-4.6,0-8.66-1.76-11.3-4.26-2.23-2.1-4.67-5.75-4.67-11.23,0-5.14,2.1-9.27,5.07-11.91,3.59-3.18,7.71-3.79,10.56-3.79,3.05,0,5.55.61,7.92,1.76v8.12Z"/><path d="M939.67,90.05l-13.94-24.9h9.61l9.07,16.65,8.12-16.65h9.34l-23.62,44.8h-9.34l10.76-19.89Z"/><path d="M554.34,152.25c-2.71,1.42-6.29,2.64-11.17,2.64-7.92,0-12.72-2.71-16.51-6.29-5.21-5.01-7.24-10.62-7.24-17.26,0-8.19,3.38-14.07,7.24-17.66,4.53-4.26,10.15-5.96,16.58-5.96,3.18,0,6.97.54,11.1,2.78v10.28c-4.13-4.74-9.27-5.07-10.89-5.07-9.07,0-14.95,7.44-14.95,15.77,0,10.01,7.71,15.43,15.29,15.43,4.2,0,7.92-1.83,10.56-4.94v10.28Z"/><path d="M586.41,124.57h8.26v29.3h-8.26v-3.79c-2.98,4.26-6.9,4.74-9,4.74-9,0-14.95-7.04-14.95-15.63s5.89-15.56,14.55-15.56c2.23,0,6.63.41,9.41,4.74v-3.79ZM570.99,139.19c0,4.67,3.38,8.32,8.12,8.32s8.12-3.65,8.12-8.32-3.38-8.26-8.12-8.26-8.12,3.59-8.12,8.26Z"/><path d="M613.48,104.54v49.33h-8.26v-49.33h8.26Z"/><path d="M646.09,133.5c-1.76-1.62-3.93-2.57-6.77-2.57-5.48,0-8.26,3.99-8.26,8.26,0,4.8,3.59,8.32,8.53,8.32,1.83,0,4.26-.54,6.5-2.57v8.05c-1.62.81-4.2,1.83-7.58,1.83-4.6,0-8.66-1.76-11.3-4.26-2.23-2.1-4.67-5.75-4.67-11.23,0-5.14,2.1-9.27,5.07-11.91,3.59-3.18,7.71-3.79,10.56-3.79,3.05,0,5.55.61,7.92,1.76v8.12Z"/><path d="M663.28,124.57v16.58c0,1.56.14,3.65,1.76,5.14,1.01.88,2.64,1.49,4.2,1.49s3.18-.61,4.2-1.49c1.62-1.49,1.76-3.59,1.76-5.14v-16.58h8.26v17.93c0,2.64-.34,6.16-3.59,9-2.71,2.37-7.04,3.32-10.62,3.32s-7.92-.95-10.62-3.32c-3.25-2.84-3.59-6.36-3.59-9v-17.93h8.26Z"/><path d="M702.25,104.54v49.33h-8.26v-49.33h8.26Z"/><path d="M735.27,124.57h8.26v29.3h-8.26v-3.79c-2.98,4.26-6.9,4.74-9,4.74-9,0-14.95-7.04-14.95-15.63s5.89-15.56,14.55-15.56c2.23,0,6.63.41,9.41,4.74v-3.79ZM719.84,139.19c0,4.67,3.38,8.32,8.12,8.32s8.12-3.65,8.12-8.32-3.38-8.26-8.12-8.26-8.12,3.59-8.12,8.26Z"/><path d="M762.33,131.61v22.26h-8.26v-22.26h-3.25v-7.04h3.25v-10.01h8.26v10.01h5.68v7.04h-5.68Z"/><path d="M802.19,127.75c2.91,2.64,4.94,6.7,4.94,11.5s-2.03,8.8-4.94,11.44c-2.5,2.3-6.29,4.13-11.84,4.13s-9.34-1.83-11.84-4.13c-2.91-2.64-4.94-6.7-4.94-11.44s2.03-8.86,4.94-11.5c2.5-2.3,6.29-4.13,11.84-4.13s9.34,1.83,11.84,4.13ZM798.6,139.25c0-4.6-3.52-8.32-8.26-8.32s-8.26,3.72-8.26,8.32,3.45,8.26,8.26,8.26,8.26-3.79,8.26-8.26Z"/><path d="M816.19,124.57h8.26v4.4c1.29-2.51,3.05-3.72,3.65-4.06,1.29-.81,2.91-1.29,4.87-1.29,1.42,0,2.57.34,3.52.68l-1.08,7.71c-1.08-.74-2.17-1.08-3.86-1.08-1.56,0-3.86.34-5.48,2.37-1.56,1.96-1.62,4.47-1.62,6.5v14.08h-8.26v-29.3Z"/></svg>