<?xml version="1.0" encoding="UTF-8"?><svg id="Layer_1" xmlns="http://www.w3.org/2000/svg" viewBox="0 0 1600 200"><rect x="1528.73" y="37.88" width="25.04" height="123.76"/><rect x="1459.54" y="37.88" width="28.1" height="123.76"/><rect x="1390.35" y="37.88" width="31.16" height="123.76"/><rect x="1321.16" y="37.88" width="34.22" height="123.76"/><rect x="1251.96" y="37.88" width="37.28" height="123.76"/><rect x="1182.77" y="37.88" width="40.34" height="123.76"/><path d="M114.5,166.7l-38.4-88.87-15.51,83.93h-14.36s25.06-128.46,25.06-128.46l43.21,102.2,43.21-102.2,25.06,128.46h-14.36s-15.69-83.94-15.69-83.94l-38.22,88.89Z"/><path d="M329.5,99.08c0,8.78-1.62,17.09-4.85,24.91-3.24,7.83-7.98,14.78-14.22,20.86-6.25,6.08-13.49,10.78-21.73,14.1-8.24,3.32-16.64,4.98-25.19,4.98s-17.12-1.65-25.19-4.94c-8.08-3.29-15.25-8-21.52-14.1-6.27-6.11-11.05-13.09-14.35-20.94-3.29-7.85-4.94-16.14-4.94-24.87s1.65-17.11,4.94-25c3.29-7.88,8.06-14.86,14.31-20.94,6.24-6.08,13.46-10.75,21.64-14.02,8.19-3.27,16.55-4.9,25.11-4.9s17.29,1.62,25.36,4.86c8.07,3.24,15.23,7.89,21.48,13.97,6.25,6.08,11,13.06,14.26,20.94,3.26,7.88,4.89,16.24,4.89,25.08ZM263.51,150.1c6.75,0,13.16-1.27,19.24-3.8,6.08-2.53,11.59-6.28,16.54-11.23,4.73-4.73,8.38-10.18,10.97-16.34,2.59-6.17,3.88-12.71,3.88-19.64s-1.28-13.58-3.84-19.81c-2.56-6.22-6.22-11.71-10.97-16.47-4.76-4.76-10.21-8.43-16.37-11.02-6.16-2.59-12.64-3.89-19.45-3.89s-13.29,1.27-19.45,3.8c-6.16,2.53-11.6,6.22-16.33,11.06-4.73,4.84-8.38,10.38-10.97,16.6-2.59,6.22-3.88,12.8-3.88,19.72s1.25,13.4,3.76,19.43c2.5,6.02,6.19,11.5,11.05,16.43,4.87,4.93,10.35,8.69,16.46,11.28,6.11,2.59,12.56,3.88,19.37,3.88Z"/><path d="M552.14,99.08c0,8.78-1.62,17.09-4.85,24.91-3.24,7.83-7.98,14.78-14.22,20.86-6.25,6.08-13.49,10.78-21.73,14.1-8.24,3.32-16.64,4.98-25.19,4.98s-17.12-1.65-25.19-4.94c-8.08-3.29-15.25-8-21.52-14.1-6.27-6.11-11.05-13.09-14.35-20.94-3.29-7.85-4.94-16.14-4.94-24.87s1.64-17.11,4.94-25c3.29-7.88,8.06-14.86,14.31-20.94,6.24-6.08,13.46-10.75,21.64-14.02,8.19-3.27,16.55-4.9,25.11-4.9s17.29,1.62,25.36,4.86c8.07,3.24,15.23,7.89,21.48,13.97,6.25,6.08,11,13.06,14.26,20.94,3.26,7.88,4.89,16.24,4.89,25.08ZM486.15,150.1c6.75,0,13.17-1.27,19.24-3.8,6.08-2.53,11.59-6.28,16.54-11.23,4.73-4.73,8.38-10.18,10.97-16.34,2.59-6.17,3.88-12.71,3.88-19.64s-1.28-13.58-3.84-19.81c-2.56-6.22-6.22-11.71-10.97-16.47-4.76-4.76-10.21-8.43-16.37-11.02-6.16-2.59-12.64-3.89-19.45-3.89s-13.29,1.27-19.45,3.8c-6.16,2.53-11.61,6.22-16.33,11.06-4.73,4.84-8.38,10.38-10.97,16.6-2.59,6.22-3.88,12.8-3.88,19.72s1.25,13.4,3.76,19.43c2.5,6.02,6.19,11.5,11.06,16.43,4.87,4.93,10.35,8.69,16.46,11.28,6.11,2.59,12.56,3.88,19.37,3.88Z"/><path d="M367,161.84V52.22h-29.79v-14.01h74.27v14.01h-29.62v109.62h-14.85Z"/><rect x="1113.58" y="38.09" width="43.39" height="123.76"/><rect x="1044.39" y="38.09" width="46.45" height="123.76"/><path d="M945.92,38.09c4.39,1.47,8.72,3.42,12.98,5.9v22.33c-10.89-9.11-22.16-13.67-33.81-13.67-12.83,0-23.65,4.61-32.44,13.83-8.85,9.17-13.27,20.39-13.27,33.65s4.42,24.16,13.27,33.17c8.84,9.01,19.68,13.51,32.52,13.51,6.63,0,12.27-1.08,16.91-3.24,2.59-1.08,5.27-2.53,8.05-4.37,2.78-1.83,5.7-4.04,8.78-6.63v22.73c-5.07,2.87-10.27,5.03-15.59,6.55h81.86V38.09h-79.25Z"/><polygon points="676.56 161.85 756.77 161.85 743.8 131.84 690.33 131.84 676.56 161.85"/><path d="M904.81,38.09h-92.82v106.37h36.73v17.39h57.39c-10-2.91-18.96-8.27-26.89-16.1-12.57-12.57-18.85-27.72-18.85-45.46,0-15.91,5.26-30.09,15.78-42.55,8.08-9.52,17.63-16.07,28.67-19.65Z"/><polygon points="698.18 114.12 736.11 114.12 717.59 71.66 698.18 114.12"/><polygon points="793.14 38.09 721.8 38.09 777.39 161.85 793.14 161.85 793.14 38.09"/><polygon points="713.88 38.09 587.72 38.09 587.72 161.85 656.26 161.85 713.88 38.09"/></svg>