<?xml version="1.0" encoding="UTF-8"?><svg id="Layer_1" xmlns="http://www.w3.org/2000/svg" viewBox="0 0 800 400"><path d="M599.05,337.92h-35.26l-9.18,20.01h-13.39l40.76-87.55,39.32,87.55h-13.6l-8.64-20.01ZM593.98,326.24l-12.22-28.01-12.8,28.01h25.02Z"/><path d="M644.02,275.55v70.69h24.22v11.68h-36.65v-82.37h12.43Z"/><path d="M740.91,279.98v14.72c-7.18-6.01-14.62-9.02-22.3-9.02-8.47,0-15.6,3.04-21.39,9.12-5.83,6.05-8.75,13.44-8.75,22.19s2.92,15.93,8.75,21.87c5.83,5.94,12.98,8.91,21.45,8.91,4.38,0,8.09-.71,11.15-2.13,1.71-.71,3.48-1.67,5.31-2.88,1.83-1.21,3.76-2.67,5.79-4.37v14.99c-7.11,4.02-14.58,6.03-22.41,6.03-11.77,0-21.82-4.11-30.14-12.32-8.29-8.29-12.43-18.28-12.43-29.98,0-10.49,3.47-19.85,10.4-28.06,8.54-10.06,19.58-15.1,33.13-15.1,7.4,0,14.55,2.01,21.45,6.03Z"/><path d="M145.9,219.39l-52.92-122.48-21.38,115.67h-19.79S86.35,35.53,86.35,35.53l59.55,140.84,59.54-140.84,34.54,177.04h-19.79s-21.62-115.68-21.62-115.68l-52.67,122.5Z"/><path d="M442.2,126.19c0,12.1-2.23,23.55-6.69,34.33-4.46,10.79-10.99,20.37-19.6,28.75-8.61,8.38-18.59,14.86-29.95,19.43-11.36,4.57-22.93,6.87-34.71,6.87s-23.59-2.27-34.71-6.81c-11.13-4.54-21.01-11.02-29.66-19.44-8.65-8.42-15.23-18.04-19.77-28.86-4.54-10.82-6.8-22.25-6.8-34.27s2.27-23.59,6.8-34.45c4.54-10.86,11.11-20.48,19.71-28.86,8.6-8.38,18.55-14.82,29.83-19.32,11.28-4.5,22.81-6.75,34.6-6.75s23.82,2.23,34.95,6.69c11.13,4.46,20.99,10.88,29.6,19.26,8.61,8.38,15.16,18,19.66,28.86,4.49,10.86,6.75,22.38,6.75,34.56ZM351.25,196.5c9.3,0,18.14-1.75,26.52-5.24,8.38-3.49,15.97-8.65,22.8-15.48,6.51-6.52,11.55-14.02,15.12-22.52,3.56-8.5,5.35-17.52,5.35-27.07s-1.77-18.72-5.29-27.29c-3.53-8.57-8.57-16.14-15.12-22.7-6.56-6.56-14.08-11.62-22.57-15.19-8.49-3.57-17.43-5.36-26.81-5.36s-18.32,1.75-26.81,5.24c-8.49,3.49-15.99,8.58-22.51,15.25-6.51,6.67-11.55,14.3-15.12,22.87-3.57,8.57-5.35,17.63-5.35,27.18s1.73,18.47,5.18,26.78c3.45,8.3,8.53,15.85,15.23,22.64,6.71,6.79,14.26,11.97,22.68,15.54,8.41,3.57,17.31,5.35,26.69,5.35Z"/><path d="M749.02,126.19c0,12.1-2.23,23.55-6.69,34.33-4.46,10.79-10.99,20.37-19.6,28.75-8.61,8.38-18.59,14.86-29.95,19.43-11.36,4.57-22.93,6.87-34.71,6.87s-23.59-2.27-34.71-6.81c-11.13-4.54-21.01-11.02-29.66-19.44-8.65-8.42-15.23-18.04-19.77-28.86-4.54-10.82-6.8-22.25-6.8-34.27s2.27-23.59,6.8-34.45c4.54-10.86,11.11-20.48,19.71-28.86,8.6-8.38,18.55-14.82,29.83-19.32,11.28-4.5,22.81-6.75,34.6-6.75s23.82,2.23,34.95,6.69c11.12,4.46,20.99,10.88,29.6,19.26,8.61,8.38,15.16,18,19.66,28.86,4.49,10.86,6.74,22.38,6.74,34.56ZM658.08,196.5c9.3,0,18.14-1.75,26.52-5.24,8.37-3.49,15.97-8.65,22.8-15.48,6.51-6.52,11.55-14.02,15.12-22.52,3.56-8.5,5.35-17.52,5.35-27.07s-1.76-18.72-5.29-27.29c-3.53-8.57-8.57-16.14-15.12-22.7-6.55-6.56-14.07-11.62-22.56-15.19-8.49-3.57-17.43-5.36-26.81-5.36s-18.32,1.75-26.81,5.24c-8.49,3.49-15.99,8.58-22.51,15.25-6.51,6.67-11.55,14.3-15.12,22.87-3.57,8.57-5.35,17.63-5.35,27.18s1.73,18.47,5.18,26.78c3.45,8.3,8.53,15.85,15.24,22.64,6.71,6.79,14.26,11.97,22.68,15.54,8.41,3.57,17.31,5.35,26.69,5.35Z"/><path d="M493.87,212.69V61.61h-41.06v-19.31h102.35v19.31h-40.82v151.08h-20.47Z"/><rect x="513.83" y="274.54" width="3.94" height="83.47"/><rect x="462.41" y="274.54" width="7.38" height="83.47"/><rect x="410.98" y="274.54" width="10.81" height="83.47"/><rect x="359.55" y="274.54" width="14.25" height="83.47"/><rect x="308.12" y="274.54" width="17.68" height="83.47"/><rect x="256.69" y="274.54" width="21.11" height="83.47"/><rect x="205.26" y="274.54" width="24.55" height="83.47"/><rect x="153.83" y="274.54" width="27.98" height="83.47"/><rect x="102.4" y="274.54" width="31.41" height="83.47"/><rect x="50.98" y="274.54" width="34.85" height="83.47"/></svg>