<?xml version="1.0" encoding="UTF-8"?><svg id="Layer_1" xmlns="http://www.w3.org/2000/svg" viewBox="0 0 800 400"><rect x="734.87" y="265.15" width="18.57" height="91.76"/><rect x="683.57" y="265.15" width="20.84" height="91.76"/><rect x="632.27" y="265.15" width="23.1" height="91.76"/><rect x="580.97" y="265.15" width="25.37" height="91.76"/><rect x="529.67" y="265.15" width="27.64" height="91.76"/><rect x="478.37" y="265.15" width="29.91" height="91.76"/><path d="M135.1,234.28l-55.08-127.48-22.25,120.38h-20.59S73.12,42.93,73.12,42.93l61.98,146.59,61.97-146.59,35.95,184.26h-20.6s-22.5-120.4-22.5-120.4l-54.82,127.5Z"/><path d="M443.48,137.29c0,12.6-2.32,24.51-6.96,35.73-4.64,11.23-11.44,21.2-20.4,29.92-8.96,8.72-19.35,15.46-31.17,20.23-11.82,4.76-23.86,7.15-36.13,7.15s-24.55-2.36-36.13-7.08c-11.58-4.72-21.87-11.47-30.87-20.23-9-8.76-15.86-18.78-20.58-30.04-4.72-11.27-7.08-23.15-7.08-35.67s2.36-24.55,7.08-35.85c4.72-11.3,11.56-21.32,20.52-30.04,8.96-8.72,19.3-15.42,31.05-20.11,11.74-4.68,23.74-7.03,36.01-7.03s24.79,2.32,36.37,6.97c11.58,4.64,21.85,11.32,30.8,20.04,8.96,8.72,15.78,18.74,20.46,30.04,4.68,11.3,7.02,23.29,7.02,35.97ZM348.83,210.46c9.68,0,18.88-1.82,27.6-5.45,8.72-3.63,16.62-9,23.73-16.11,6.78-6.78,12.02-14.59,15.74-23.44,3.71-8.85,5.57-18.23,5.57-28.17s-1.84-19.49-5.51-28.41c-3.67-8.92-8.92-16.8-15.73-23.62-6.82-6.83-14.65-12.09-23.49-15.81-8.84-3.71-18.14-5.57-27.9-5.57s-19.06,1.82-27.9,5.45c-8.84,3.64-16.64,8.93-23.42,15.87-6.78,6.94-12.03,14.88-15.73,23.81-3.71,8.92-5.57,18.35-5.57,28.28s1.8,19.23,5.39,27.87c3.59,8.64,8.88,16.49,15.86,23.56,6.98,7.07,14.85,12.46,23.6,16.17,8.76,3.72,18.01,5.57,27.78,5.57Z"/><path d="M762.83,137.29c0,12.6-2.32,24.51-6.96,35.73-4.64,11.23-11.44,21.2-20.4,29.92-8.96,8.72-19.35,15.46-31.17,20.23-11.82,4.76-23.86,7.15-36.13,7.15s-24.55-2.36-36.13-7.08c-11.58-4.72-21.87-11.47-30.87-20.23-9-8.76-15.86-18.78-20.58-30.04-4.72-11.27-7.08-23.15-7.08-35.67s2.36-24.55,7.08-35.85c4.72-11.3,11.56-21.32,20.52-30.04,8.96-8.72,19.3-15.42,31.05-20.11,11.74-4.68,23.74-7.03,36.01-7.03s24.79,2.32,36.37,6.97c11.58,4.64,21.85,11.32,30.8,20.04,8.96,8.72,15.78,18.74,20.46,30.04,4.68,11.3,7.02,23.29,7.02,35.97ZM668.17,210.46c9.68,0,18.88-1.82,27.6-5.45,8.72-3.63,16.62-9,23.73-16.11,6.78-6.78,12.02-14.59,15.74-23.44,3.71-8.85,5.57-18.23,5.57-28.17s-1.84-19.49-5.51-28.41c-3.67-8.92-8.92-16.8-15.73-23.62-6.82-6.83-14.65-12.09-23.48-15.81-8.84-3.71-18.14-5.57-27.9-5.57s-19.06,1.82-27.9,5.45c-8.84,3.64-16.65,8.93-23.42,15.87-6.78,6.94-12.03,14.88-15.73,23.81-3.71,8.92-5.57,18.35-5.57,28.28s1.8,19.23,5.39,27.87c3.59,8.64,8.88,16.49,15.86,23.56,6.98,7.07,14.85,12.46,23.6,16.17,8.76,3.72,18.01,5.57,27.78,5.57Z"/><path d="M497.27,227.31V70.07h-42.73v-20.09h106.52v20.09h-42.49v157.24h-21.3Z"/><rect x="427.07" y="265.31" width="32.17" height="91.76"/><rect x="375.77" y="265.31" width="34.44" height="91.76"/><path d="M302.75,265.31c3.25,1.09,6.46,2.54,9.62,4.38v16.55c-8.08-6.76-16.43-10.14-25.07-10.14-9.52,0-17.53,3.42-24.05,10.26-6.56,6.8-9.84,15.11-9.84,24.95s3.28,17.91,9.84,24.59c6.56,6.68,14.59,10.02,24.11,10.02,4.92,0,9.09-.8,12.53-2.4,1.92-.8,3.91-1.88,5.97-3.24,2.06-1.36,4.23-3,6.51-4.92v16.85c-3.76,2.13-7.62,3.73-11.56,4.86h60.69v-91.76h-58.76Z"/><polygon points="103.05 357.07 162.51 357.07 152.9 334.82 113.25 334.82 103.05 357.07"/><path d="M272.28,265.31h-68.82v78.87h27.23v12.89h42.55c-7.41-2.16-14.06-6.13-19.94-11.93-9.32-9.32-13.98-20.55-13.98-33.71,0-11.79,3.9-22.31,11.7-31.55,5.99-7.06,13.07-11.92,21.26-14.57Z"/><polygon points="119.07 321.68 147.2 321.68 133.46 290.2 119.07 321.68"/><polygon points="189.48 265.31 136.59 265.31 177.8 357.07 189.48 357.07 189.48 265.31"/><polygon points="130.72 265.31 37.17 265.31 37.17 357.07 87.99 357.07 130.72 265.31"/></svg>