<?xml version="1.0" encoding="UTF-8"?><svg id="Layer_1" xmlns="http://www.w3.org/2000/svg" viewBox="0 0 800 400"><rect x="687.97" y="242.85" width="15.55" height="112.28"/><rect x="588.4" y="242.85" width="26.77" height="112.28"/><rect x="488.83" y="242.85" width="37.98" height="112.28"/><rect x="389.27" y="242.85" width="49.2" height="112.28"/><path d="M178.39,204.95l-46.08-106.64-18.61,100.71h-17.23s30.07-154.15,30.07-154.15l51.85,122.63,51.84-122.63,30.07,154.14h-17.23s-18.82-100.72-18.82-100.72l-45.86,106.66Z"/><path d="M436.38,123.81c0,10.54-1.94,20.5-5.82,29.89-3.88,9.39-9.57,17.73-17.06,25.03-7.49,7.3-16.19,12.94-26.08,16.92-9.89,3.98-19.96,5.98-30.22,5.98s-20.54-1.98-30.22-5.93c-9.69-3.95-18.3-9.6-25.82-16.92-7.53-7.33-13.26-15.71-17.21-25.13-3.95-9.42-5.92-19.37-5.92-29.84s1.97-20.54,5.92-29.99c3.95-9.45,9.67-17.83,17.17-25.13,7.49-7.3,16.15-12.9,25.97-16.82,9.82-3.92,19.86-5.88,30.13-5.88s20.74,1.94,30.43,5.83c9.69,3.88,18.28,9.47,25.77,16.77,7.49,7.3,13.2,15.67,17.11,25.13,3.91,9.46,5.87,19.49,5.87,30.09ZM357.19,185.02c8.1,0,15.8-1.52,23.09-4.56,7.29-3.04,13.91-7.53,19.85-13.48,5.67-5.67,10.06-12.21,13.16-19.61,3.1-7.4,4.66-15.25,4.66-23.57s-1.54-16.3-4.61-23.76c-3.07-7.46-7.46-14.05-13.16-19.76-5.71-5.71-12.26-10.12-19.65-13.23-7.39-3.11-15.17-4.66-23.34-4.66s-15.95,1.52-23.34,4.56c-7.39,3.04-13.92,7.47-19.6,13.28-5.67,5.81-10.06,12.45-13.16,19.91-3.11,7.46-4.66,15.35-4.66,23.66s1.5,16.08,4.51,23.31c3,7.23,7.43,13.8,13.26,19.71,5.84,5.91,12.42,10.42,19.75,13.53,7.33,3.11,15.07,4.66,23.24,4.66Z"/><path d="M703.53,123.81c0,10.54-1.94,20.5-5.82,29.89-3.88,9.39-9.57,17.73-17.06,25.03-7.49,7.3-16.19,12.94-26.08,16.92-9.89,3.98-19.96,5.98-30.23,5.98s-20.54-1.98-30.22-5.93c-9.69-3.95-18.3-9.6-25.82-16.92-7.53-7.33-13.26-15.71-17.21-25.13-3.95-9.42-5.92-19.37-5.92-29.84s1.97-20.54,5.92-29.99c3.95-9.45,9.67-17.83,17.17-25.13,7.49-7.3,16.15-12.9,25.97-16.82,9.82-3.92,19.86-5.88,30.13-5.88s20.74,1.94,30.43,5.83c9.69,3.88,18.28,9.47,25.77,16.77,7.49,7.3,13.2,15.67,17.11,25.13,3.91,9.46,5.87,19.49,5.87,30.09ZM624.34,185.02c8.1,0,15.8-1.52,23.09-4.56,7.29-3.04,13.91-7.53,19.85-13.48,5.67-5.67,10.06-12.21,13.17-19.61,3.1-7.4,4.66-15.25,4.66-23.57s-1.54-16.3-4.61-23.76c-3.07-7.46-7.46-14.05-13.16-19.76-5.71-5.71-12.25-10.12-19.65-13.23-7.39-3.11-15.17-4.66-23.34-4.66s-15.95,1.52-23.34,4.56c-7.39,3.04-13.93,7.47-19.6,13.28-5.67,5.81-10.06,12.45-13.16,19.91-3.11,7.46-4.66,15.35-4.66,23.66s1.5,16.08,4.51,23.31c3,7.23,7.43,13.8,13.27,19.71,5.84,5.91,12.42,10.42,19.75,13.53,7.33,3.11,15.07,4.66,23.24,4.66Z"/><path d="M481.37,199.12V67.58h-35.75v-16.81h89.11v16.81h-35.55v131.54h-17.82Z"/><polygon points="149.12 309.4 168.01 309.4 158.56 282.46 149.12 309.4"/><path d="M96.48,242.85v112.28h253.63v-112.28H96.48ZM178.42,339.44l-4.83-14.06h-30.05l-4.83,14.06h-22.43l30.8-80.91h22.96l30.8,80.91h-22.43ZM256.32,339.44h-46.25v-80.91h21.03v63.1h25.22v17.81ZM323.71,285.57c-4.87-5.94-10.87-8.91-18.03-8.91-3.15,0-6.06.57-8.75,1.72-2.68,1.15-4.99,2.7-6.92,4.67-1.93,1.97-3.45,4.31-4.56,7.03-1.11,2.72-1.66,5.65-1.66,8.8s.55,6.19,1.66,8.91c1.11,2.72,2.65,5.08,4.61,7.08,1.97,2,4.27,3.58,6.92,4.72,2.65,1.15,5.51,1.72,8.58,1.72,6.72,0,12.77-2.86,18.14-8.58v24.9l-2.15.75c-3.22,1.14-6.22,1.99-9.01,2.52-2.79.54-5.55.8-8.26.8-5.58,0-10.93-1.06-16.04-3.17-5.12-2.11-9.62-5.08-13.52-8.91-3.9-3.83-7.03-8.37-9.39-13.63-2.36-5.26-3.54-11-3.54-17.22s1.16-11.93,3.49-17.12c2.32-5.19,5.44-9.66,9.34-13.41,3.9-3.76,8.42-6.69,13.57-8.8,5.15-2.11,10.55-3.17,16.2-3.17,3.22,0,6.38.34,9.5,1.02,3.11.68,6.39,1.74,9.82,3.17v25.11Z"/></svg>