<?xml version="1.0" encoding="UTF-8"?><svg id="Layer_1" xmlns="http://www.w3.org/2000/svg" viewBox="0 0 1600 200"><rect x="1192.94" y="35.33" width="27.42" height="135.52"/><rect x="1117.17" y="35.33" width="30.77" height="135.52"/><rect x="1041.41" y="35.33" width="34.12" height="135.52"/><rect x="965.65" y="35.33" width="37.47" height="135.52"/><rect x="889.89" y="35.33" width="40.82" height="135.52"/><rect x="814.12" y="35.33" width="44.17" height="135.52"/><path d="M1343.8,138.22h-58.55l-15.24,33.21h-22.23l67.67-145.35,65.28,145.35h-22.59l-14.35-33.21ZM1335.38,118.82l-20.28-46.5-21.26,46.5h41.54Z"/><path d="M1418.46,34.67v117.37h40.21v19.4h-60.85V34.67h20.64Z"/><path d="M1579.32,42.03v24.45c-11.93-9.98-24.27-14.97-37.02-14.97-14.05,0-25.89,5.05-35.52,15.15-9.69,10.04-14.53,22.32-14.53,36.85s4.84,26.45,14.53,36.32c9.68,9.86,21.55,14.79,35.61,14.79,7.26,0,13.43-1.18,18.51-3.54,2.83-1.18,5.77-2.77,8.81-4.78,3.04-2.01,6.24-4.43,9.61-7.26v24.89c-11.81,6.67-24.21,10.01-37.2,10.01-19.54,0-36.23-6.82-50.04-20.46-13.76-13.76-20.64-30.35-20.64-49.78,0-17.42,5.76-32.95,17.27-46.59,14.17-16.71,32.51-25.07,55-25.07,12.28,0,24.15,3.34,35.61,10.01Z"/><rect x="738.36" y="35.56" width="47.52" height="135.52"/><rect x="662.6" y="35.56" width="50.87" height="135.52"/><path d="M331.49,66.61c-9.69-9.92-21.67-14.88-35.96-14.88s-26.25,4.96-36.05,14.88c-9.8,9.8-14.7,21.91-14.7,36.32,0,15.12,5.08,27.55,15.24,37.29,10.1,9.74,21.76,14.61,34.99,14.61,14.35,0,26.45-4.96,36.32-14.88,9.86-10.04,14.79-22.26,14.79-36.67s-4.87-26.81-14.61-36.67Z"/><path d="M641.54,35.56h-74.59c10.55,3.32,20.09,9.19,28.58,17.68,14,13.94,20.99,30.68,20.99,50.22s-7.03,36.35-21.08,50.05c-8.7,8.48-18.51,14.32-29.42,17.57h75.52V35.56Z"/><polygon points="73.03 171.08 123.92 171.08 87.63 89.02 73.03 171.08"/><polygon points="20.68 35.56 20.68 171.08 51.7 171.08 78.23 35.56 20.68 35.56"/><polygon points="170.94 35.56 85.2 35.56 127.32 130.92 170.94 35.56"/><path d="M223.95,102.66c0-19.25,7.05-35.78,21.17-49.6,8.54-8.4,18.15-14.21,28.78-17.5h-96.03l23.84,135.52h72.46c-9.63-2.95-18.65-8-27-15.27-15.47-13.52-23.21-31.24-23.21-53.15Z"/><path d="M581.09,66.61c-9.69-9.92-21.67-14.88-35.96-14.88s-26.25,4.96-36.05,14.88c-9.8,9.8-14.7,21.91-14.7,36.32,0,15.12,5.08,27.55,15.24,37.29,10.1,9.74,21.76,14.61,34.99,14.61,14.35,0,26.45-4.96,36.32-14.88,9.86-10.04,14.79-22.26,14.79-36.67s-4.87-26.81-14.61-36.67Z"/><polygon points="130.09 171.08 180.55 171.08 167.44 89.11 130.09 171.08"/><path d="M473.56,102.66c0-19.25,7.05-35.78,21.17-49.6,8.54-8.4,18.15-14.21,28.78-17.5h-61.55v18.74h-31.36v116.78h93.17c-9.63-2.95-18.65-8-27-15.27-15.47-13.52-23.21-31.24-23.21-53.15Z"/><path d="M378.52,54.3v-18.74h-61.17c10.55,3.32,20.09,9.19,28.58,17.68,14,13.94,20.99,30.68,20.99,50.22s-7.03,36.35-21.08,50.05c-8.7,8.48-18.51,14.32-29.42,17.57h93.55V54.3h-31.45Z"/></svg>